<svg xmlns="http://www.w3.org/2000/svg" xmlns:xlink="http://www.w3.org/1999/xlink" width="15" height="15" viewBox="0 0 15 15">
  <path fill-rule="evenodd" d="M10.598 3.045c.17 0 .307.152.307.34 0 .189-.137.341-.307.341H1.67c-.17 0-.307-.152-.307-.34 0-.189.138-.341.307-.341h8.928zm1.934 0c.23 0 .418.152.418.34 0 .189-.187.341-.418.341h-.527c-.23 0-.418-.152-.418-.34 0-.189.187-.341.418-.341h.527z"/>
  <path fill-rule="evenodd" d="M14.696 6.641h-.42V2.808c0-.621-.494-1.126-1.102-1.126H1.444C.648 1.682 0 2.344 0 3.158V11.477c0 .988.786 1.791 1.752 1.791h12.226a.302.302 0 0 0 .299-.305v-2.382h.419a.302.302 0 0 0 .299-.305v-3.33a.302.302 0 0 0-.299-.305zM1.444 2.292h11.73c.279 0 .505.232.505.516v1.216H1.444a.857.857 0 0 1-.847-.866c0-.477.38-.866.847-.866zM13.68 12.658H1.752c-.637 0-1.155-.53-1.155-1.18V4.352c.239.177.531.281.847.281H13.68v2.007h-1.697c-1.063 0-1.928.884-1.928 1.97 0 1.086.865 1.97 1.928 1.97h1.697v2.077zm.718-2.687h-2.415c-.734 0-1.33-.61-1.33-1.36 0-.75.596-1.36 1.33-1.36h2.415v2.72z"/>
  <path fill-rule="evenodd" d="M12.61 7.816a1.024 1.024 0 0 0 0 2.045 1.024 1.024 0 0 0 0-2.045zm0 1.345a.323.323 0 1 1 0-.646.323.323 0 0 1 0 .646z"/>
</svg>
