<svg xmlns="http://www.w3.org/2000/svg" xmlns:xlink="http://www.w3.org/1999/xlink" width="15" height="15" viewBox="0 0 15 15">
  <path fill-rule="evenodd" d="M0 13.418C0 14.292.711 15 1.582 15h11.836c.874 0 1.582-.711 1.582-1.582V1.582C15 .708 14.289 0 13.418 0H1.582C.708 0 0 .711 0 1.582v11.836zm13.418.831H1.582a.833.833 0 0 1-.831-.83v-1.977l2.844-2.845 2.43 2.43a.374.374 0 0 0 .531 0l4.389-4.388 3.304 3.304v3.475c0 .457-.374.831-.83.831zM1.582.751h11.836c.457 0 .831.374.831.83V8.88l-3.04-3.037a.374.374 0 0 0-.53 0l-4.39 4.389L3.86 7.8a.374.374 0 0 0-.53 0L.75 10.377V1.582c0-.457.374-.831.83-.831z"/>
  <path fill-rule="evenodd" d="M3.929 5.714c.986 0 1.785-.802 1.785-1.785A1.79 1.79 0 0 0 3.93 2.143a1.79 1.79 0 0 0-1.786 1.786c0 .983.8 1.785 1.786 1.785zm0-2.869a1.084 1.084 0 0 1 0 2.167 1.084 1.084 0 0 1 0-2.167z"/>
</svg>
