<svg xmlns="http://www.w3.org/2000/svg" xmlns:xlink="http://www.w3.org/1999/xlink" width="15" height="15" viewBox="0 0 15 15">
    <path fill-rule="evenodd" d="M9.86 4.61L7.5 6.969l-2.36-2.36a.374.374 0 0 0-.53 0 .375.375 0 0 0 0 .53L6.97 7.5 4.61 9.86a.375.375 0 1 0 .53.53L7.5 8.03l2.36 2.36a.372.372 0 0 0 .53 0 .375.375 0 0 0 0-.531l-2.36-2.36 2.36-2.36a.375.375 0 1 0-.53-.53z"/>
    <path fill-rule="evenodd" d="M7.285 15c2.978 0 5.535-1.842 6.664-4.478h-.727c-1.083 2.252-3.332 3.804-5.937 3.804-3.66 0-6.63-3.055-6.63-6.826 0-3.77 2.97-6.826 6.63-6.826 2.597 0 4.914 1.554 5.997 3.923H14l-.025-.07C12.857 1.864 10.282 0 7.285 0 3.261 0 0 3.358 0 7.5 0 11.642 3.261 15 7.285 15"/>
</svg>
