<svg xmlns="http://www.w3.org/2000/svg" xmlns:xlink="http://www.w3.org/1999/xlink" width="15" height="15" viewBox="0 0 15 15">
  <path fill-rule="evenodd" d="M5.966 10.313L3.905 8.16a.569.569 0 0 1 0-.78.511.511 0 0 1 .745 0L6.34 9.145l4.14-4.327a.511.511 0 0 1 .746 0 .569.569 0 0 1 0 .779l-4.513 4.717a.516.516 0 0 1-.373.162.516.516 0 0 1-.373-.162zM7.285 15C3.261 15 0 11.642 0 7.5 0 3.358 3.261 0 7.285 0c2.997 0 5.572 1.864 6.69 4.527.01.023.016.047.025.07h-.718C12.199 2.228 9.882.674 7.285.674 3.625.674.655 3.729.655 7.5c0 3.77 2.97 6.826 6.63 6.826 2.605 0 4.854-1.552 5.937-3.804h.727C12.819 13.158 10.263 15 7.285 15z"/>
</svg>
