<svg xmlns="http://www.w3.org/2000/svg" xmlns:xlink="http://www.w3.org/1999/xlink" width="15" height="15" viewBox="0 0 15 15">
    <defs>
        <path id="a" d="M12.94 4.8H15L12.4 1.46 9.281.147 6.245 0 2.576 1.594 1.046 3.47 0 6.93.306 9.86l1.131 2.54L5.2 15.13h1.98l3.38-.116 2.38-1.238 1.577-2.567.095-.724h-2.478z"/>
    </defs>
    <g fill-rule="evenodd">
        <mask id="b" fill="#fff">
            <use xlink:href="#a"/>
        </mask>
        <path fill-rule="nonzero" d="M7.444 14.136c3.611 0 6.54-2.933 6.54-6.55a6.54 6.54 0 0 0-6.54-6.55C3.834 1.034.905 3.966.905 7.585c0 3.617 2.928 6.55 6.54 6.55zm0 .646C3.476 14.782.26 11.56.26 7.585S3.476.388 7.444.388a7.187 7.187 0 0 1 7.186 7.197c0 3.975-3.217 7.197-7.186 7.197z" mask="url(#b)"/>
        <path fill-rule="nonzero" d="M8.019 7.565l2.593-2.593a.412.412 0 1 0-.583-.584L7.436 6.982 4.842 4.388a.412.412 0 1 0-.583.584l2.594 2.593-2.594 2.594a.412.412 0 1 0 .583.583l2.594-2.594 2.593 2.594a.411.411 0 0 0 .583 0 .412.412 0 0 0 0-.584L8.02 7.565z" mask="url(#b)"/>
    </g>
</svg>
