<svg xmlns="http://www.w3.org/2000/svg" xmlns:xlink="http://www.w3.org/1999/xlink" width="15" height="15" viewBox="0 0 15 15">
    <defs>
        <path id="a" d="M12.94 4.8H15L12.4 1.46 9.281.147 6.245 0 2.576 1.594 1.046 3.47 0 6.93.306 9.86l1.131 2.54L5.2 15.13h1.98l3.38-.116 2.38-1.238 1.577-2.567.095-.724h-2.478z"/>
    </defs>
    <g fill-rule="evenodd">
        <mask id="b" fill="#fff">
            <use xlink:href="#a"/>
        </mask>
        <path fill-rule="nonzero" d="M7.5 14.168c3.612 0 6.54-2.932 6.54-6.55a6.54 6.54 0 0 0-6.54-6.55C3.89 1.066.961 3.998.961 7.617c0 3.618 2.928 6.55 6.54 6.55zm0 .647c-3.968 0-7.185-3.223-7.185-7.197C.315 3.643 3.532.42 7.5.42a7.187 7.187 0 0 1 7.186 7.198c0 3.974-3.217 7.197-7.186 7.197z" mask="url(#b)"/>
        <g fill-rule="nonzero">
            <path d="M5.966 10.313a.516.516 0 0 0 .373.162c.14 0 .274-.058.373-.162l4.513-4.717a.569.569 0 0 0 0-.78.511.511 0 0 0-.745 0L6.339 9.145 4.65 7.38a.511.511 0 0 0-.745 0 .569.569 0 0 0 0 .779l2.061 2.154z"/>
            <path d="M6.343 10.475a.523.523 0 0 1-.38-.165L3.906 8.165a.58.58 0 0 1 0-.794.523.523 0 0 1 .761 0L6.343 9.12l4.119-4.3a.523.523 0 0 1 .76 0 .57.57 0 0 1 .158.398.57.57 0 0 1-.158.397l-4.5 4.696a.523.523 0 0 1-.38.165zM4.288 7.233a.5.5 0 0 0-.363.157c-.2.208-.2.548 0 .757l2.055 2.145a.5.5 0 0 0 .726 0l4.499-4.696a.544.544 0 0 0 .15-.38.544.544 0 0 0-.15-.378.5.5 0 0 0-.726 0L6.343 9.156 4.65 7.39a.5.5 0 0 0-.363-.157z"/>
        </g>
    </g>
</svg>
