<svg xmlns="http://www.w3.org/2000/svg" xmlns:xlink="http://www.w3.org/1999/xlink" width="15" height="15" viewBox="0 0 15 15">
    <defs>
        <path id="a" d="M12.608 4.554a.716.716 0 0 1-1.009 0 .716.716 0 0 1 0-1.01.716.716 0 0 1 1.01 0 .716.716 0 0 1 0 1.01zm-1.061 3.595c-.376.948-1.17 1.82-1.897 2.546-.832.833-1.12 1.913-1.202 2.756L2.7 7.703c.843-.082 1.923-.37 2.755-1.202.727-.727 1.598-1.522 2.547-1.897 1.075-.425 1.986-.211 2.871.674s1.099 1.796.674 2.871zm-7.632 4.09a1.687 1.687 0 0 1-.238-2.088l2.328 2.327a1.69 1.69 0 0 1-2.09-.24zm9.425-9.426a1.746 1.746 0 0 0-2.943.853 3.283 3.283 0 0 0-.813-.261c-.629-.114-1.29-.035-1.963.23-1.125.443-2.097 1.326-2.9 2.129-1.189 1.188-3.191.895-3.21.89a.521.521 0 0 0-.451.882l1.862 1.862a2.732 2.732 0 0 0 .25 3.577 2.735 2.735 0 0 0 3.578.251l1.862 1.862a.521.521 0 0 0 .882-.451c0-.006-.077-.513-.003-1.165.098-.861.4-1.55.893-2.045.803-.803 1.686-1.775 2.13-2.9.266-.674.343-1.334.23-1.963a3.283 3.283 0 0 0-.262-.814c.314-.068.61-.227.853-.47.69-.676.69-1.783.005-2.467z"/>
    </defs>
    <use fill-rule="evenodd" transform="rotate(-45 7.38 8.77)" xlink:href="#a"/>
</svg>
