<svg xmlns="http://www.w3.org/2000/svg" xmlns:xlink="http://www.w3.org/1999/xlink" width="15" height="15" viewBox="0 0 15 15">
  <path fill-rule="evenodd" d="M0 4.934v6.99c0 1.067.82 1.933 1.83 1.933h11.34c1.01 0 1.83-.866 1.83-1.933v-6.99c0-1.015-.78-1.84-1.742-1.84h-2.437l-.058-.267C10.528 1.75 9.631 1 8.583 1h-2.17c-1.044 0-1.94.75-2.18 1.827l-.057.268H1.742C.78 3.095 0 3.923 0 4.935zm4.476-1.047a.378.378 0 0 0 .364-.307l.125-.576c.16-.714.753-1.212 1.448-1.212h2.17c.696 0 1.29.498 1.449 1.212l.125.576c.04.178.19.307.364.307h2.734c.548 0 .992.469.992 1.047v6.99c0 .63-.484 1.141-1.08 1.141H1.83c-.597 0-1.081-.51-1.081-1.141v-6.99c0-.578.444-1.047.992-1.047h2.734z"/>
  <circle fill-rule="evenodd" cx="2.679" cy="5.821" r="1"/>
  <path fill-rule="evenodd" d="M7.5 11.714A3.22 3.22 0 0 0 10.714 8.5 3.22 3.22 0 0 0 7.5 5.286 3.217 3.217 0 0 0 4.286 8.5 3.217 3.217 0 0 0 7.5 11.714zm0-5.663c1.35 0 2.449 1.1 2.449 2.449 0 1.35-1.1 2.449-2.449 2.449-1.35 0-2.449-1.1-2.449-2.449 0-1.35 1.1-2.449 2.449-2.449z"/>
</svg>
