<svg xmlns="http://www.w3.org/2000/svg" width="15" height="15" viewBox="0 0 15 15">
    <g fill-rule="nonzero">
        <path d="M11.672 0H6.386C5.665 0 5.076.502 5 1.142h.873a.532.532 0 0 1 .513-.36l4.965-.004v1.673c0 .49.436.886.972.886l1.798-.004.02 7.39c0 .273-.243.494-.542.494H10.93V12H13.6C14.37 12 15 11.427 15 10.723v-7.7L11.672 0z"/>
        <path d="M9.518 2H1.482C.666 2 0 2.62 0 3.383v10.233C0 14.38.666 15 1.482 15h8.036c.817 0 1.482-.62 1.482-1.384V3.383C11 2.621 10.335 2 9.518 2zm.573 11.616c0 .296-.257.536-.573.536H1.482c-.317 0-.574-.24-.574-.536V3.383c0-.295.257-.536.574-.536h8.036c.316 0 .573.241.573.536v10.233z"/>
        <path d="M2.397 5h2.206C4.823 5 5 4.776 5 4.5S4.822 4 4.603 4H2.397C2.177 4 2 4.224 2 4.5s.178.5.397.5zM6.679 6H2.32C2.144 6 2 6.224 2 6.5s.144.5.321.5H6.68C6.856 7 7 6.776 7 6.5S6.856 6 6.679 6zM6.679 8H2.32C2.144 8 2 8.224 2 8.5s.144.5.321.5H6.68C6.856 9 7 8.776 7 8.5S6.856 8 6.679 8zM6.679 10H2.32c-.177 0-.321.224-.321.5s.144.5.321.5H6.68c.177 0 .321-.224.321-.5s-.144-.5-.321-.5zM7.603 12H5.397c-.22 0-.397.224-.397.5s.178.5.397.5h2.206c.22 0 .397-.224.397-.5s-.178-.5-.397-.5z"/>
    </g>
</svg>
