<svg xmlns="http://www.w3.org/2000/svg" xmlns:xlink="http://www.w3.org/1999/xlink" width="15" height="15" viewBox="0 0 15 15">
  <path fill-rule="evenodd" d="M7.5 0C11.636 0 15 3.336 15 7.436a.277.277 0 0 1-.278.275.277.277 0 0 1-.278-.275C14.444 3.639 11.33.551 7.5.551 3.67.55.556 3.639.556 7.436c0 .845.152 1.67.453 2.454a.275.275 0 0 1-.26.373.278.278 0 0 1-.259-.177A7.352 7.352 0 0 1 0 7.436C0 3.336 3.364 0 7.5 0zm.14 1.184c3.403 0 6.176 2.706 6.176 6.03v1.371a.277.277 0 0 1-.28.275.277.277 0 0 1-.281-.275v-1.37c0-3.023-2.521-5.483-5.615-5.483-1.528 0-3.119.729-4.249 1.95-.987 1.066-1.486 2.344-1.367 3.506l.032.307c.231 2.25.235 2.292-.25 3.23l-.09.176a.281.281 0 0 1-.377.123.271.271 0 0 1-.125-.368l.092-.178c.411-.795.411-.795.192-2.928l-.031-.308c-.135-1.315.416-2.747 1.51-3.928 1.235-1.334 2.98-2.13 4.663-2.13zM9.297 3.09a.273.273 0 0 1 .157.356.28.28 0 0 1-.362.154 4.226 4.226 0 0 0-1.54-.288c-2.346 0-4.184 1.807-4.184 4.112 0 .671.064 1.267.12 1.792.15 1.39.268 2.487-1.08 3.37a.28.28 0 0 1-.387-.075.271.271 0 0 1 .077-.38c1.068-.7.986-1.467.836-2.858a16.638 16.638 0 0 1-.124-1.849A4.59 4.59 0 0 1 4.2 4.111a4.765 4.765 0 0 1 3.352-1.348c.603 0 1.19.11 1.745.326zm2.872 4.294c.019.255.252 3.659-.272 5.83a.267.267 0 0 1-.321.2.275.275 0 0 1-.193-.332c.513-2.123.26-5.631.258-5.667v-.02a4.169 4.169 0 0 0-1.662-3.345.28.28 0 0 1-.061-.382.259.259 0 0 1 .369-.063c1.176.872 1.879 2.284 1.882 3.779zm-1.528-.818a.285.285 0 0 1-.161.362.268.268 0 0 1-.347-.168C9.745 5.65 8.723 4.906 7.59 4.906c-1.487 0-2.698 1.256-2.706 2.803.027.234.26 2.369-.003 4.286a.275.275 0 0 1-.306.239.28.28 0 0 1-.23-.319c.262-1.914.002-4.132 0-4.154a.292.292 0 0 1-.003-.035c0-1.866 1.457-3.384 3.248-3.384 1.36 0 2.585.893 3.051 2.223zM7.522 5.526c1.074 0 1.952.852 1.952 1.9v1.9c0 .15-.125.271-.279.271a.275.275 0 0 1-.278-.271v-1.9c0-.748-.628-1.357-1.395-1.357-.762 0-1.386.6-1.394 1.342.041.357.521 4.763-.887 6.686a.28.28 0 0 1-.388.063.267.267 0 0 1-.064-.379c1.312-1.792.79-6.278.785-6.323l-.001-.032c0-1.048.876-1.9 1.95-1.9zm5.623 3.949c.166.012.29.14.275.286l-.185 1.84c-.013.138-.146.241-.3.241h-.027c-.167-.014-.29-.142-.275-.287l.184-1.84c.015-.146.163-.253.328-.24zm-8.54 2.802c.136.072.173.22.082.328l-.592.71a.321.321 0 0 1-.247.106.349.349 0 0 1-.164-.04c-.136-.072-.172-.22-.082-.328l.592-.71c.091-.11.275-.139.411-.066zm6.224-4.956c.03.16.727 3.952-.503 6.738a.24.24 0 0 1-.216.152.218.218 0 0 1-.108-.03c-.12-.067-.168-.231-.108-.366 1.156-2.617.47-6.342.463-6.38-.028-.147.055-.292.185-.324.13-.031.259.063.287.21zm-2.763-.406c.027.091.658 2.266-.33 4.742-.046.114-.172.185-.307.185a.382.382 0 0 1-.102-.014c-.17-.047-.262-.2-.205-.341.93-2.33.323-4.42.316-4.44-.043-.146.063-.292.236-.328.173-.036.349.051.392.196zM6.92 12.652a.278.278 0 0 1 .165.366l-.592 1.41a.296.296 0 0 1-.275.177.307.307 0 0 1-.11-.02.278.278 0 0 1-.165-.366l.592-1.41a.301.301 0 0 1 .385-.157zm1.923-2.389c.131 0 .237.135.237.294 0 .074-.008 1.821-.73 3.874-.038.11-.126.174-.217.174a.201.201 0 0 1-.094-.024c-.12-.063-.176-.234-.124-.38.681-1.938.691-3.627.691-3.644 0-.159.107-.294.237-.294z"/>
</svg>
