<svg xmlns="http://www.w3.org/2000/svg" xmlns:xlink="http://www.w3.org/1999/xlink" width="15" height="15" viewBox="0 0 15 15">
    <path fill-rule="nonzero" d="M7.5 0C3.364 0 0 3.365 0 7.5 0 11.636 3.365 15 7.5 15c4.136 0 7.5-3.364 7.5-7.5C15 3.365 11.636 0 7.5 0zm0 13.636A6.143 6.143 0 0 1 1.364 7.5 6.143 6.143 0 0 1 7.5 1.364 6.143 6.143 0 0 1 13.636 7.5 6.143 6.143 0 0 1 7.5 13.636z"/>
    <path fill-rule="nonzero" d="M8 3a1 1 0 1 1-1 1c0-.551.449-1 1-1zm0 3c.552 0 1 .28 1 .625v3.75C9 10.72 8.552 11 8 11s-1-.28-1-.625v-3.75C7 6.28 7.448 6 8 6z"/>
</svg>
