<svg xmlns="http://www.w3.org/2000/svg" xmlns:xlink="http://www.w3.org/1999/xlink" width="15" height="15" viewBox="0 0 15 15">
    <g fill-rule="evenodd">
      <path id="a" d="M13.143 5.4h-.857v-.83C12.286 2.045 10.367 0 8 0 5.633 0 3.714 2.046 3.714 4.57v.83h-.857c-.473 0-.857.403-.857.9v7.2c0 .497.384.9.857.9h10.286c.473 0 .857-.403.857-.9V6.3c0-.497-.384-.9-.857-.9zM4.57 4.57C4.571 2.545 6.11.9 8 .9c1.89 0 3.429 1.646 3.429 3.67v.83H4.57v-.83zm8.572 8.93H2.857V6.3h10.286v7.2z"/>
      <path id="b" d="M7.667 11.127c.92 0 1.666-.732 1.666-1.636 0-.904-.745-1.636-1.666-1.636C6.746 7.855 6 8.587 6 9.49c0 .904.746 1.636 1.667 1.636zm0-2.454c.459 0 .833.367.833.818 0 .45-.374.818-.833.818a.827.827 0 0 1-.834-.818c0-.45.375-.818.834-.818z"/>
    </g>
</svg>
