<svg xmlns="http://www.w3.org/2000/svg" xmlns:xlink="http://www.w3.org/1999/xlink" width="15" height="15" viewBox="0 0 15 15">
  <path fill-rule="evenodd" d="M15 4.267c0-.326-.127-.62-.329-.845l-.007-.014-.012-.01A1.25 1.25 0 0 0 13.74 3H1.261c-.36 0-.684.154-.914.399-.003.003-.008.005-.011.009-.004.004-.005.01-.008.014A1.261 1.261 0 0 0 0 4.267v7.466c0 .334.132.635.342.862l.01.015.005.003c.23.238.55.387.904.387h12.478c.355 0 .675-.15.904-.387l.005-.003c.004-.004.005-.01.01-.015.21-.226.342-.528.342-.862V4.267zm-4.91 3.338l4.323-3.645a.74.74 0 0 1 .067.307v7.466c0 .099-.02.193-.055.28L10.09 7.604zm3.65-4.083c.108 0 .21.025.304.068L7.5 9.108.956 3.59a.732.732 0 0 1 .305-.068h12.478zM.574 12.012a.743.743 0 0 1-.055-.28V4.268a.74.74 0 0 1 .067-.307L4.91 7.605.575 12.012zm.686.466a.73.73 0 0 1-.332-.083l4.38-4.453 2.024 1.707a.258.258 0 0 0 .334 0L9.69 7.942l4.38 4.453a.73.73 0 0 1-.332.083H1.261z"/>
</svg>
