<svg xmlns="http://www.w3.org/2000/svg" xmlns:xlink="http://www.w3.org/1999/xlink" width="15" height="15" viewBox="0 0 15 15">
  <path fill-rule="evenodd" d="M8 7.467c-.258 0-.467-.237-.467-.53V.53C7.533.237 7.743 0 8 0c.258 0 .467.237.467.53v6.407c0 .293-.21.53-.467.53zm0 7.466c-3.86 0-7-2.986-7-6.656 0-1.468.493-2.86 1.425-4.026a7.07 7.07 0 0 1 3.603-2.363.554.554 0 0 1 .682.354.519.519 0 0 1-.373.649C3.842 3.586 2.1 5.8 2.1 8.277c0 3.094 2.647 5.612 5.901 5.612s5.901-2.518 5.901-5.612c0-2.476-1.743-4.69-4.238-5.386a.519.519 0 0 1-.373-.649.554.554 0 0 1 .682-.354 7.07 7.07 0 0 1 3.603 2.363A6.389 6.389 0 0 1 15 8.277c0 3.67-3.14 6.656-7 6.656z"/>
</svg>
