<svg xmlns="http://www.w3.org/2000/svg" xmlns:xlink="http://www.w3.org/1999/xlink" width="15" height="15" viewBox="0 0 15 15">
  <path fill-rule="evenodd" d="M14.162 3.29L7.567 1.01a.323.323 0 0 0-.164 0L.837 3.29c-.104.042-.179.14-.149.253a.222.222 0 0 0 .224.183h13.16c.12 0 .21-.084.239-.183a.234.234 0 0 0-.149-.253zM2.266 3.262l5.226-1.801 5.226 1.801H2.266z"/>
  <path fill-rule="evenodd" d="M14.76 12.51h-.662v-.736a.232.232 0 0 0-.235-.235h-.382v-.72a.232.232 0 0 0-.236-.236h-.147V4.878h.588a.232.232 0 0 0 .236-.235.232.232 0 0 0-.236-.235H1.308a.232.232 0 0 0-.235.235c0 .132.103.235.235.235h.588v5.705H1.75a.232.232 0 0 0-.235.235v.72h-.382a.232.232 0 0 0-.235.236v.735H.235a.232.232 0 0 0-.235.235v.97c0 .133.103.236.235.236H14.76a.232.232 0 0 0 .235-.235v-.97a.232.232 0 0 0-.235-.236zm-2.838-7.632h.691v5.705h-.69V4.878zm-.382 6.176h1.47v.485h-1.47v-.485zM8.32 4.878h3.132v5.705h-.147a.232.232 0 0 0-.235.235v.72H8.703v-.72a.232.232 0 0 0-.235-.235H8.32V4.878zm-1.16 0h.69v5.705h-.69V4.878zm-.398 6.176h1.47v.485h-1.47v-.485zm-3.22-6.176h3.132v5.705h-.147a.232.232 0 0 0-.235.235v.72H3.925v-.72a.232.232 0 0 0-.235-.235h-.147V4.878zm-1.16 0h.69v5.705h-.69V4.878zm-.397 6.176h1.47v.485h-1.47v-.485zm-.618.955h12.261v.5H1.368v-.5zm13.157 1.47H.47v-.5H14.524v.5z"/>
</svg>
