<svg xmlns="http://www.w3.org/2000/svg" xmlns:xlink="http://www.w3.org/1999/xlink" width="15" height="15" viewBox="0 0 15 15">
  <path fill-rule="evenodd" d="M11.411 6.607V6.6a.332.332 0 0 0-.009-.04v-.001a.335.335 0 0 0-.013-.037l-.004-.01a.335.335 0 0 0-.013-.027l-.007-.01c0-.003-.002-.005-.003-.007a.343.343 0 0 0-.016-.022l-.003-.005a.328.328 0 0 0-.027-.03l-.006-.006a.34.34 0 0 0-.026-.022l-.006-.005a.342.342 0 0 0-.038-.025L6.265 3.53l2.864-1.8 4.803 2.724-2.023 1.271a.337.337 0 1 0 .36.57l2.5-1.57a.337.337 0 0 0-.013-.579L9.287 1.044a.338.338 0 0 0-.346.008L5.43 3.258l-.002.001-1.755 1.103-.002.001L.158 6.571a.337.337 0 0 0 .013.578l5.469 3.102a.338.338 0 0 0 .346-.007l2.5-1.571a.337.337 0 1 0-.36-.57L5.799 9.565.995 6.84l2.865-1.8 5.122 2.906v3.848a.337.337 0 0 0 .518.285l1.756-1.104a.337.337 0 0 0 .158-.285V6.647 6.64a.34.34 0 0 0-.003-.034zm-1.754 4.578V7.75a.337.337 0 0 0-.17-.293L4.507 4.634l1.108-.697 4.803 2.725-.42.264a.337.337 0 1 0 .36.57l.38-.239v3.248l-1.082.68zm4.734-5.578c.163-.101.38-.053.482.107.103.16.054.37-.11.471l-2.589 1.593a.354.354 0 0 1-.482-.107.337.337 0 0 1 .11-.471l2.589-1.593zM8.087 9.422a.334.334 0 0 1 .463.106.34.34 0 0 1-.105.467l-2.488 1.579a.334.334 0 0 1-.345.008L.17 8.464a.34.34 0 0 1-.126-.462.335.335 0 0 1 .458-.127l5.267 3.018 2.318-1.471zm6.304-2.55c.163-.101.38-.053.482.107.103.16.054.37-.11.471l-2.589 1.593a.354.354 0 0 1-.482-.107.337.337 0 0 1 .11-.471l2.589-1.593zM8.087 10.94a.334.334 0 0 1 .463.106.34.34 0 0 1-.105.467l-2.488 1.579a.334.334 0 0 1-.345.008L.17 9.982a.34.34 0 0 1-.126-.462.335.335 0 0 1 .458-.127l5.267 3.018 2.318-1.471zm6.304-2.803c.163-.101.38-.053.482.107.103.16.054.37-.11.471l-2.589 1.593a.354.354 0 0 1-.482-.107.337.337 0 0 1 .11-.471l2.589-1.593zm-6.304 4.068a.334.334 0 0 1 .463.106.34.34 0 0 1-.105.467l-2.488 1.579a.334.334 0 0 1-.345.008L.17 11.247a.34.34 0 0 1-.126-.462.335.335 0 0 1 .458-.127l5.267 3.018 2.318-1.471z"/>
</svg>
