<svg xmlns="http://www.w3.org/2000/svg" xmlns:xlink="http://www.w3.org/1999/xlink" width="15" height="15" viewBox="0 0 15 15">
  <path fill-rule="evenodd" d="M14.224 6.544l-.974-.165a5.496 5.496 0 0 0-.39-.944l.573-.802a.854.854 0 0 0-.093-1.104l-.863-.863a.85.85 0 0 0-1.1-.093l-.806.574a5.439 5.439 0 0 0-.98-.403l-.162-.962a.856.856 0 0 0-.845-.715h-1.22a.856.856 0 0 0-.846.715l-.168.985a5.36 5.36 0 0 0-.941.397l-.797-.574a.85.85 0 0 0-.498-.159.845.845 0 0 0-.605.252l-.867.863A.857.857 0 0 0 2.55 4.65l.58.814c-.16.304-.288.62-.386.947l-.962.162a.856.856 0 0 0-.715.846v1.22c0 .42.3.776.715.846l.985.168c.101.324.235.64.397.941l-.57.794a.854.854 0 0 0 .092 1.103l.863.864a.85.85 0 0 0 1.1.092l.815-.579c.292.153.6.278.915.377l.162.973c.07.414.426.715.846.715H8.61c.42 0 .776-.3.846-.715l.165-.973c.327-.102.643-.232.944-.392l.802.574a.85.85 0 0 0 1.104-.093l.863-.863a.857.857 0 0 0 .093-1.104l-.574-.805c.16-.304.293-.62.391-.944l.974-.162a.856.856 0 0 0 .715-.846V7.39a.845.845 0 0 0-.71-.846zm-.067 2.066c0 .037-.026.07-.064.075l-1.216.203a.389.389 0 0 0-.313.287c-.11.425-.278.834-.504 1.213a.392.392 0 0 0 .017.426l.716 1.008a.079.079 0 0 1-.01.099l-.862.863a.074.074 0 0 1-.055.023.071.071 0 0 1-.044-.014l-1.005-.716a.391.391 0 0 0-.426-.017c-.38.226-.788.394-1.214.504a.384.384 0 0 0-.286.313l-.206 1.216a.075.075 0 0 1-.075.064H7.39a.075.075 0 0 1-.075-.064l-.203-1.216a.389.389 0 0 0-.287-.313 4.815 4.815 0 0 1-1.187-.487.401.401 0 0 0-.197-.052.381.381 0 0 0-.226.072L4.2 12.82a.086.086 0 0 1-.044.014.078.078 0 0 1-.055-.023l-.863-.863a.079.079 0 0 1-.008-.099l.712-1a.397.397 0 0 0 .017-.428 4.594 4.594 0 0 1-.51-1.21.397.397 0 0 0-.312-.287l-1.225-.209a.075.075 0 0 1-.064-.075v-1.22c0-.037.026-.07.064-.075L3.12 7.14a.392.392 0 0 0 .316-.29c.107-.425.272-.837.496-1.216a.387.387 0 0 0-.02-.423L3.19 4.198a.079.079 0 0 1 .009-.098l.863-.864c.02-.02.04-.023.055-.023.017 0 .032.006.043.015l1 .712c.127.09.295.096.428.018.377-.226.785-.4 1.211-.51a.397.397 0 0 0 .287-.313l.209-1.225a.075.075 0 0 1 .075-.064h1.22c.037 0 .069.026.075.064l.203 1.208a.392.392 0 0 0 .29.315c.437.11.854.281 1.242.51a.392.392 0 0 0 .426-.017l1-.719a.086.086 0 0 1 .043-.014c.011 0 .034.003.055.023l.863.863a.079.079 0 0 1 .008.099l-.715 1.005a.391.391 0 0 0-.017.426c.226.38.394.788.504 1.213.037.151.162.264.312.287l1.217.206a.075.075 0 0 1 .064.075v1.22h-.003z"/>
  <path fill-rule="evenodd" d="M8 5.029A2.973 2.973 0 0 0 5.029 8 2.973 2.973 0 0 0 8 10.971 2.973 2.973 0 0 0 10.971 8 2.973 2.973 0 0 0 8 5.029zm0 5.166A2.196 2.196 0 0 1 5.805 8c0-1.211.984-2.195 2.195-2.195 1.211 0 2.195.984 2.195 2.195A2.196 2.196 0 0 1 8 10.195z"/>
</svg>
