<svg xmlns="http://www.w3.org/2000/svg" xmlns:xlink="http://www.w3.org/1999/xlink" width="15" height="15" viewBox="0 0 15 15">
  <path fill-rule="nonzero"  d="M15.004 9.503a.313.313 0 0 1-.314.312H1.088l1.91 1.88a.308.308 0 0 1 0 .443.319.319 0 0 1-.225.092.319.319 0 0 1-.226-.092L.093 9.723a.308.308 0 0 1 0-.442l2.454-2.415a.32.32 0 0 1 .45 0 .308.308 0 0 1 0 .442L1.084 9.19h13.6c.176 0 .319.14.319.314zm-.094-4.997a.31.31 0 0 1 .003.442L12.46 7.364a.319.319 0 0 1-.226.092.319.319 0 0 1-.226-.092.308.308 0 0 1 0-.442l1.91-1.877H.32A.317.317 0 0 1 0 4.731c0-.174.143-.315.32-.315h13.599l-1.91-1.882a.308.308 0 0 1 0-.442.32.32 0 0 1 .448 0l2.453 2.414z"/>
</svg>
