<svg xmlns="http://www.w3.org/2000/svg" xmlns:xlink="http://www.w3.org/1999/xlink" width="15" height="15" viewBox="0 0 15 15">
    <defs>
        <path id="a" d="M14.532 2.159h-3.51v-.51C11.023.74 10.192 0 9.169 0H5.832C4.81 0 3.977.74 3.977 1.65v.509H.468c-.26 0-.468.185-.468.416 0 .231.208.416.468.416h.846v9.782C1.314 14.001 2.438 15 3.818 15h7.364c1.38 0 2.504-1 2.504-2.227V2.991h.846c.26 0 .468-.185.468-.416 0-.231-.208-.416-.468-.416zm-9.619-.51c0-.45.413-.816.92-.816h3.335c.506 0 .919.367.919.817v.509H4.913v-.51zm7.837 11.124c0 .768-.704 1.394-1.568 1.394H3.818c-.864 0-1.568-.626-1.568-1.394V2.991h10.503v9.782h-.003z"/>
        <path id="b" d="M7.5 12.5c-.198 0-.357-.187-.357-.416V4.788c0-.23.159-.413.357-.413.198 0 .357.184.357.413v7.299c0 .23-.159.413-.357.413zm-3.571 0c-.196 0-.358-.19-.358-.43V5.43c0-.24.16-.43.358-.43.198 0 .357.19.357.43v6.64c0 .24-.159.43-.357.43zm6.428 0c-.198 0-.357-.19-.357-.43V5.43c0-.24.159-.43.357-.43.199 0 .357.19.357.43v6.64c0 .24-.158.43-.357.43z"/>
    </defs>
    <g fill-rule="nonzero">
        <use xlink:href="#a"/>
        <use xlink:href="#b"/>
    </g>
</svg>
