<svg xmlns="http://www.w3.org/2000/svg" xmlns:xlink="http://www.w3.org/1999/xlink" width="15" height="15" viewBox="0 0 15 15">
  <path fill-rule="evenodd" d="M11.894 5.086C13.61 5.111 15 6.498 15 8.2c0 1.717-1.414 3.113-3.153 3.113h-2.61a.318.318 0 0 1-.32-.315c0-.175.143-.316.32-.316h2.61c1.386 0 2.513-1.114 2.513-2.482s-1.127-2.482-2.513-2.482c-.084 0-.17.005-.255.013a.322.322 0 0 1-.255-.087.314.314 0 0 1-.096-.25l.002-.032c.006-.076.011-.148.011-.217 0-1.937-1.595-3.512-3.556-3.512a3.57 3.57 0 0 0-2.346.874 3.5 3.5 0 0 0-1.173 2.16.32.32 0 0 1-.347.271 2.98 2.98 0 0 0-.277-.014C1.947 4.923.64 6.215.64 7.803c0 1.586 1.307 2.878 2.915 2.878h2.483c.176 0 .32.141.32.316a.318.318 0 0 1-.32.316H3.555C1.595 11.313 0 9.738 0 7.803c0-1.937 1.595-3.511 3.555-3.511h.04a4.137 4.137 0 0 1 1.334-2.26A4.214 4.214 0 0 1 7.698 1c2.294 0 4.164 1.828 4.196 4.086zM7.199 2.875c.166 0 .301.15.301.335 0 .185-.135.334-.301.334-.96 0-1.782.797-1.912 1.854-.02.168-.15.29-.298.29a.275.275 0 0 1-.04-.004c-.166-.025-.281-.193-.259-.376C4.86 3.92 5.94 2.875 7.2 2.875zm1.146 5.953a.406.406 0 0 1 .022.487.256.256 0 0 1-.207.115.248.248 0 0 1-.184-.088l-.667-.74v4.24c0 .191-.125.345-.278.345-.153 0-.277-.154-.277-.344V8.6l-.667.741c-.114.127-.29.115-.392-.027a.406.406 0 0 1 .023-.487l1.008-1.12a.394.394 0 0 1 .61 0l1.009 1.12z"/>
</svg>
