<svg xmlns="http://www.w3.org/2000/svg" xmlns:xlink="http://www.w3.org/1999/xlink" width="15" height="15" viewBox="0 0 15 15">
  <path fill-rule="evenodd" d="M14.376 10.135c.345 0 .624.278.624.622v3.621a.622.622 0 0 1-.624.622H.624A.622.622 0 0 1 0 14.378v-3.621c0-.344.279-.622.624-.622.346 0 .625.278.625.622v3h12.502v-3c0-.344.279-.622.625-.622zM7.219.192a.71.71 0 0 1 .969 0l3.798 3.712a.566.566 0 0 1-.035.851.712.712 0 0 1-.936-.032L8.362 2.129v7.81c0 .334-.294.602-.66.602-.366 0-.661-.268-.661-.601V2.132L4.389 4.726a.704.704 0 0 1-.933.032.563.563 0 0 1-.036-.85L7.22.191z"/>
</svg>
