<svg xmlns="http://www.w3.org/2000/svg" xmlns:xlink="http://www.w3.org/1999/xlink" width="15" height="15" viewBox="0 0 15 15">
  <path fill-rule="evenodd" transform="translate(3 1)" d="M4.35 7.72c1.938 0 3.51-1.732 3.51-3.866C7.86 1.719 6.288 0 4.35 0 2.415 0 .843 1.731.843 3.854c0 2.122 1.572 3.865 3.509 3.865zm0-6.712c1.422 0 2.584 1.28 2.584 2.846 0 1.565-1.162 2.846-2.583 2.846-1.42 0-2.583-1.281-2.583-2.846 0-1.566 1.162-2.846 2.583-2.846z"/>
  <path fill-rule="evenodd" transform="translate(3 1)" d="M-2.196 13.333h12.392c.263 0 .47-.236.47-.534 0-2.794-2.003-5.08-4.477-5.08H1.811c-2.463 0-4.478 2.273-4.478 5.08 0 .298.208.534.471.534zm4.007-4.546h4.378c1.796 0 3.273 1.516 3.503 3.478H-1.692c.23-1.95 1.707-3.478 3.503-3.478z"/>
</svg>
