<svg xmlns="http://www.w3.org/2000/svg" width="26" height="26" viewBox="0 0 19 19" fill="#88879C">
    <g>
        <path d="M10 11c2.76 0 5-2.467 5-5.508C15 2.45 12.76 0 10 0S5 2.467 5 5.492C5 8.516 7.24 11 10 11zm0-9.564c2.025 0 3.681 1.825 3.681 4.056 0 2.23-1.656 4.055-3.681 4.055-2.025 0-3.681-1.825-3.681-4.055 0-2.23 1.656-4.056 3.681-4.056zM.67 19h17.66c.374 0 .67-.336.67-.761C19 14.257 16.145 11 12.62 11H6.38C2.87 11 0 14.239 0 18.239c0 .425.296.761.67.761zm5.71-6.478h6.24c2.558 0 4.664 2.16 4.992 4.956H1.388c.328-2.779 2.434-4.956 4.992-4.956z"/>
    </g>
</svg>
