<svg xmlns="http://www.w3.org/2000/svg" width="26" height="30" viewBox="0 0 18 22" fill="#88879C">
    <g>
        <path d="M16.714 8.25H15.43V6.98C15.429 3.126 12.55 0 9 0 5.45 0 2.571 3.125 2.571 6.98v1.27H1.286C.576 8.25 0 8.866 0 9.625v11C0 21.384.576 22 1.286 22h15.428c.71 0 1.286-.616 1.286-1.375v-11c0-.759-.576-1.375-1.286-1.375zM3.857 6.98c0-3.09 2.307-5.605 5.143-5.605s5.143 2.515 5.143 5.606V8.25H3.857V6.98zm12.857 13.645H1.286v-11h15.428v11z"/>
        <path d="M8.5 17a2.5 2.5 0 1 0 .001-4.999A2.5 2.5 0 0 0 8.5 17zm0-3.75c.689 0 1.25.561 1.25 1.25s-.561 1.25-1.25 1.25-1.25-.561-1.25-1.25.561-1.25 1.25-1.25z"/>
    </g>
</svg>
