<svg xmlns="http://www.w3.org/2000/svg" xmlns:xlink="http://www.w3.org/1999/xlink" width="108" height="112" viewBox="0 0 108 112">
    <defs>
        <path id="a" d="M100.07 37.116H116L95.891 11.298 71.772 1.136 48.291 0l-28.37 12.324L8.088 26.837 0 53.58l2.364 22.67 8.751 19.633L40.21 117h15.312l26.135-.893 18.413-9.575 12.19-19.854.732-5.594H93.83z"/>
    </defs>
    <g fill="none" fill-rule="evenodd">
        <g transform="translate(-2 -3)">
            <mask id="b" fill="#fff">
                <use xlink:href="#a"/>
            </mask>
            <path stroke="#1E96D7" stroke-width="5" d="M58 112.063c29.307 0 53.066-23.798 53.066-53.157a53.046 53.046 0 0 0-4.331-21.07C98.4 18.52 79.37 5.75 58 5.75c-29.307 0-53.066 23.798-53.066 53.156 0 29.359 23.76 53.157 53.066 53.157z" mask="url(#b)"/>
        </g>
        <g fill="#1E96D7" fill-rule="nonzero">
            <path d="M44.135 76.752A3.989 3.989 0 0 0 47.018 78a3.99 3.99 0 0 0 2.883-1.248l34.905-36.478c1.592-1.664 1.592-4.362 0-6.026a3.954 3.954 0 0 0-5.766 0L47.018 67.714 33.96 54.067a3.953 3.953 0 0 0-5.766 0c-1.592 1.664-1.592 4.361 0 6.025l15.941 16.66z"/>
            <path d="M47.047 78a4.046 4.046 0 0 1-2.94-1.271l-15.89-16.587c-1.622-1.692-1.622-4.446 0-6.14a4.045 4.045 0 0 1 2.94-1.27c1.11 0 2.155.45 2.94 1.27l12.95 13.518L78.9 34.27A4.045 4.045 0 0 1 81.84 33c1.112 0 2.156.452 2.942 1.271A4.41 4.41 0 0 1 86 37.341a4.41 4.41 0 0 1-1.218 3.07L49.988 76.729A4.045 4.045 0 0 1 47.048 78zm-15.89-25.07a3.86 3.86 0 0 0-2.807 1.213c-1.547 1.616-1.547 4.244 0 5.86l15.89 16.586a3.861 3.861 0 0 0 2.807 1.213c1.06 0 2.057-.431 2.807-1.213L84.647 40.27a4.21 4.21 0 0 0 1.163-2.93 4.21 4.21 0 0 0-1.163-2.93 3.86 3.86 0 0 0-2.806-1.213c-1.06 0-2.057.431-2.807 1.214L47.047 67.8 33.963 54.143a3.86 3.86 0 0 0-2.806-1.213z"/>
        </g>
    </g>
</svg>
